<svg width="631" height="258" viewBox="0 0 631 258" fill="none" xmlns="http://www.w3.org/2000/svg">
<circle cx="315" cy="-58" r="316" fill="#E85524"/>
<path d="M201.338 168.754H197V145.765H201.338V147.09H198.349V167.405H201.338V168.73V168.754Z" fill="white"/>
<path d="M211.242 156.464V164.055H209.82V148.078H220.712V149.355H211.217V155.211H218.929V156.464H211.217H211.242Z" fill="white"/>
<path d="M227.508 152.512C230.954 152.512 233.508 155.09 233.508 158.392C233.508 161.693 230.954 164.272 227.508 164.272C224.062 164.272 221.508 161.693 221.508 158.392C221.508 155.09 224.062 152.512 227.508 152.512ZM227.508 162.995C230.135 162.995 232.087 160.994 232.087 158.416C232.087 155.837 230.111 153.837 227.508 153.837C224.905 153.837 222.929 155.837 222.929 158.416C222.929 160.994 224.905 162.995 227.508 162.995Z" fill="white"/>
<path d="M238.304 154.536C238.93 153.163 240.111 152.512 241.461 152.512C242.184 152.512 242.69 152.608 243.123 152.801L242.979 154.127C242.473 153.934 242.111 153.813 241.388 153.813C239.629 153.813 238.328 155.139 238.328 157.645V164.031H236.906V152.729H238.328V154.536H238.304Z" fill="white"/>
<path d="M252.232 152.753V154.898C253.1 153.548 254.787 152.512 256.907 152.512C260.16 152.512 262.618 155.066 262.618 158.392C262.618 161.717 260.16 164.296 256.907 164.296C254.762 164.296 253.076 163.236 252.232 161.886V168.778H250.81V152.777H252.232V152.753ZM252.16 158.392C252.16 160.994 254.16 162.995 256.811 162.995C259.462 162.995 261.245 160.994 261.245 158.392C261.245 155.789 259.341 153.813 256.811 153.813C254.16 153.813 252.16 155.813 252.16 158.392Z" fill="white"/>
<path d="M275.728 163.163C274.402 163.958 272.981 164.272 271.535 164.272C267.727 164.272 265.101 161.862 265.101 158.392C265.101 154.922 267.51 152.512 270.908 152.512C274.884 152.512 276.86 155.621 276.306 158.898H266.619C266.836 161.5 269.173 162.922 271.366 162.922C272.667 162.922 273.896 162.826 275.414 161.886L275.728 163.139V163.163ZM274.981 157.717C274.884 155.5 273.39 153.813 270.956 153.813C268.522 153.813 266.812 155.476 266.643 157.717H274.981Z" fill="white"/>
<path d="M284.837 152.512C288.283 152.512 290.837 155.09 290.837 158.392C290.837 161.693 288.283 164.272 284.837 164.272C281.391 164.272 278.836 161.693 278.836 158.392C278.836 155.09 281.391 152.512 284.837 152.512ZM284.837 162.995C287.463 162.995 289.415 160.994 289.415 158.416C289.415 155.837 287.439 153.837 284.837 153.837C282.234 153.837 280.258 155.837 280.258 158.416C280.258 160.994 282.234 162.995 284.837 162.995Z" fill="white"/>
<path d="M295.632 152.753V154.898C296.5 153.548 298.187 152.512 300.307 152.512C303.561 152.512 306.019 155.066 306.019 158.392C306.019 161.717 303.561 164.296 300.307 164.296C298.163 164.296 296.476 163.236 295.632 161.886V168.778H294.211V152.777H295.632V152.753ZM295.56 158.392C295.56 160.994 297.56 162.995 300.211 162.995C302.862 162.995 304.645 160.994 304.645 158.392C304.645 155.789 302.741 153.813 300.211 153.813C297.56 153.813 295.56 155.813 295.56 158.392Z" fill="white"/>
<path d="M309.465 147.476H310.886V164.055H309.465V147.476Z" fill="white"/>
<path d="M324.911 163.163C323.586 163.958 322.164 164.272 320.718 164.272C316.911 164.272 314.284 161.862 314.284 158.392C314.284 154.922 316.694 152.512 320.092 152.512C324.068 152.512 326.044 155.621 325.49 158.898H315.802C316.019 161.5 318.357 162.922 320.55 162.922C321.851 162.922 323.08 162.826 324.598 161.886L324.911 163.139V163.163ZM324.164 157.717C324.068 155.5 322.574 153.813 320.14 153.813C317.706 153.813 315.995 155.476 315.827 157.717H324.164Z" fill="white"/>
<path d="M342.744 152.874L346.238 162.778L349.371 152.753H350.865L347.154 164.055H345.322L341.997 154.946L338.671 164.055H336.84L333.129 152.753H334.623L337.756 162.754L341.25 152.874H342.744Z" fill="white"/>
<path d="M363.974 157.139V164.031H362.576V157.549C362.576 155.018 361.299 153.813 358.962 153.813C356.817 153.813 355.082 155.38 355.082 157.621V164.031H353.66V147.452H355.082V154.681C355.974 153.163 357.588 152.488 359.179 152.488C362.022 152.488 363.974 154.054 363.974 157.115V157.139Z" fill="white"/>
<path d="M373.203 152.512C376.649 152.512 379.204 155.09 379.204 158.392C379.204 161.693 376.649 164.272 373.203 164.272C369.757 164.272 367.203 161.693 367.203 158.392C367.203 155.09 369.757 152.512 373.203 152.512ZM373.203 162.995C375.83 162.995 377.782 160.994 377.782 158.416C377.782 155.837 375.806 153.837 373.203 153.837C370.601 153.837 368.625 155.837 368.625 158.416C368.625 160.994 370.601 162.995 373.203 162.995Z" fill="white"/>
<path d="M397.952 163.163C396.626 163.958 395.205 164.272 393.759 164.272C389.951 164.272 387.325 161.862 387.325 158.392C387.325 154.922 389.734 152.512 393.132 152.512C397.108 152.512 399.084 155.621 398.53 158.898H388.843C389.06 161.5 391.397 162.922 393.59 162.922C394.891 162.922 396.12 162.826 397.639 161.886L397.952 163.139V163.163ZM397.229 157.717C397.133 155.5 395.638 153.813 393.205 153.813C390.771 153.813 389.06 155.476 388.891 157.717H397.229Z" fill="white"/>
<path d="M409.278 164.031V162.007C408.362 163.452 406.723 164.272 404.964 164.272C402.675 164.272 401.108 163.043 401.108 161.018C401.108 158.826 403.109 157.548 406 157.548C407.398 157.548 408.579 157.813 409.278 158.054V157.042C409.278 155.042 408 153.837 405.591 153.837C404.434 153.837 402.94 154.199 402 154.705L401.855 153.404C402.892 152.873 404.434 152.488 405.663 152.488C408.916 152.488 410.675 154.199 410.675 157.018V164.007H409.278V164.031ZM409.278 159.91V159.139C408.506 158.922 407.518 158.657 405.928 158.657C403.904 158.657 402.506 159.452 402.506 160.946C402.506 162.296 403.518 163.115 405.012 163.115C407.157 163.115 408.94 161.597 409.278 159.91Z" fill="white"/>
<path d="M416.748 153.982V160.537C416.748 162.296 417.64 162.995 418.797 162.995C419.471 162.995 420.291 162.874 420.821 162.633L421.014 163.838C420.604 164.031 419.664 164.248 418.724 164.248C416.724 164.248 415.327 163.163 415.327 160.85V153.958H413.182V152.705H415.327V149.09H416.772V152.705H420.628V153.958H416.772L416.748 153.982Z" fill="white"/>
<path d="M430.292 167.429V147.114H427.303V145.789H431.641V168.778H427.303V167.453H430.292V167.429Z" fill="white"/>
<path d="M320.791 104.22C320.26 96.3641 314.838 90.7975 306.067 90.7975C297.295 90.7975 291.03 96.3641 290.307 104.22H320.791ZM325.658 127.137C320.284 130.246 314.501 131.643 308.308 131.643C292.837 131.643 282.138 121.86 282.138 107.69C282.138 93.5205 292.018 83.7368 305.802 83.7368C321.369 83.7368 330.189 96.34 327.707 110.485H290.09C291.391 119.546 299.054 124.534 307.97 124.534C313.344 124.534 318.14 123.619 324.309 120.269L325.658 127.161V127.137Z" fill="white"/>
<path d="M206.639 129.354H199.121V102.051C199.121 90.5084 207.266 82.4115 219.965 82.4115C232.665 82.4115 240.81 90.412 240.81 101.762V129.354H233.243V103.136C233.243 94.5086 227.918 89.5204 219.965 89.5204C212.013 89.5204 206.639 94.5086 206.639 103.136V129.354Z" fill="white"/>
<path d="M240.786 129.354H233.267V102.051C233.267 90.5084 241.412 82.4115 254.112 82.4115C266.812 82.4115 274.957 90.412 274.957 101.762V129.354H267.39V103.136C267.39 94.5086 262.064 89.5204 254.112 89.5204C246.16 89.5204 240.786 94.5086 240.786 103.136V129.354Z" fill="white"/>
<path d="M238.352 65.8562V75.3026H236.448V66.4346C236.448 62.9645 234.689 61.3017 231.484 61.3017C228.544 61.3017 226.183 63.4464 226.183 66.531V75.3026H224.255V59.8318H226.183V62.5307C227.412 60.4342 229.604 59.5185 231.797 59.5185C235.701 59.5185 238.352 61.6873 238.352 65.8562Z" fill="white"/>
<path d="M250.979 73.8567C254.57 73.8567 257.269 71.1096 257.269 67.5672C257.269 64.0248 254.57 61.2776 250.979 61.2776C247.389 61.2776 244.69 64.0248 244.69 67.5672C244.69 71.1096 247.389 73.8567 250.979 73.8567ZM250.979 59.5185C255.678 59.5185 259.197 63.0368 259.197 67.5672C259.197 72.0976 255.678 75.6159 250.979 75.6159C246.28 75.6159 242.762 72.0976 242.762 67.5672C242.762 63.0368 246.28 59.5185 250.979 59.5185Z" fill="white"/>
<path d="M274.643 60.0005L279.415 73.5435L283.704 59.8318H285.776L280.668 75.3026H278.162L273.631 62.8199L269.077 75.3026H266.57L261.486 59.8318H263.534L267.824 73.5194L272.595 60.0005H274.643Z" fill="white"/>
<path d="M322.887 65.7839V75.3026H320.959V66.3623C320.959 63.2296 319.152 61.3017 316.044 61.3017C313.272 61.3017 311.055 63.4223 311.055 66.4587V75.3026H309.127V66.3623C309.127 63.2296 307.344 61.3017 304.428 61.3017C301.513 61.3017 299.296 63.4223 299.296 66.4587V75.3026H297.368V59.8318H299.296V62.4825C300.476 60.4101 302.621 59.4944 304.742 59.4944C307.585 59.4944 309.658 60.8439 310.549 63.1091C311.682 60.5788 313.971 59.4944 316.333 59.4944C320.237 59.4944 322.839 61.9283 322.839 65.7598L322.887 65.7839Z" fill="white"/>
<path d="M339.129 59.8318H341.25L334.069 77.2545C332.671 80.5318 331.08 82.05 328.622 82.05C327.49 82.05 326.478 81.8572 325.899 81.544L326.164 79.8571C326.815 80.1222 327.683 80.2909 328.478 80.2909C329.9 80.2909 331.177 79.1101 332.285 76.4834L332.502 75.9292L325.803 59.8318H327.875L333.587 73.5676L339.153 59.8318H339.129Z" fill="white"/>
<path d="M208.495 74.8448V52H210.664V66.7479L217.363 59.4221H220.014L213.049 66.9889L220.761 74.8448H217.989L210.664 67.2057V74.8448H208.495Z" fill="white"/>
<path d="M421.279 83.3513H428.87V110.895C428.87 122.534 420.652 130.704 407.856 130.704C395.06 130.704 386.843 122.631 386.843 111.184V83.3513H394.482V109.787C394.482 118.486 399.856 123.498 407.856 123.498C415.857 123.498 421.279 118.486 421.279 109.787V83.3513Z" fill="white"/>
<path fill-rule="evenodd" clip-rule="evenodd" d="M413.206 87.207C413.327 86.4359 413.929 84.99 414.266 84.1466L414.989 82.2188C416.989 76.7003 418.821 67.5673 421.158 63.1092C422.436 60.6753 424.195 56.8196 427.544 58.3137C430.243 59.5186 429.617 62.0489 428.966 64.3622C428.388 66.3383 427.52 68.3143 426.556 70.1457C424.701 73.6881 422.05 77.5197 420.05 81.0862C419.351 82.3151 418.604 83.52 418.026 84.7972C417.664 85.5925 416.363 87.7854 416.266 88.4601L414.748 91.882C414.242 92.388 413.447 94.3882 413.543 95.4485C413.929 99.1113 416.05 99.5933 414.411 103.714L412.363 107.835C411.591 109.16 411.037 110.606 410.266 111.931L409.447 113.498C409.109 114.052 408.893 114.582 408.579 115.136L407.76 116.703C407.374 117.498 406.676 119.233 405.615 119.763C405.519 119.016 405.953 118.39 406.194 117.835L409.037 110.847C409.519 109.449 411.085 106.606 410.362 105.377C409.591 105.811 408.676 107.714 408.218 108.582L405.591 113.642C405.398 114.004 405.398 114.173 405.181 114.534C404.965 114.895 404.94 114.92 404.748 115.305C404.531 115.787 404.169 116.438 403.856 116.944C403.543 117.474 403.374 118.149 402.748 118.51C402.675 117.281 404.724 112.678 405.326 111.401C406.025 109.907 407.977 105.618 407.543 104.172C406.555 104.654 404.724 108.22 404.434 109.088C404.193 109.811 404.001 110.172 403.711 110.799C403.278 111.811 400.988 117.064 400.265 117.426C400.097 116.124 402.868 109.835 403.302 108.365L403.928 106.606C404.097 106.1 404.266 105.473 404.459 104.823C404.603 104.365 404.892 103.521 404.748 102.967C403.374 103.208 402.193 106.509 401.567 107.714C400.603 109.57 398.651 115.136 397.47 116.197C397.036 114.847 399.133 108.847 399.832 107.184L401.157 103.81C402.073 101.545 403.23 99.3523 404.242 97.1353C404.507 96.5329 405.037 96.2196 405.736 95.8581C409.254 94.0749 410.387 94.5087 411.712 90.5566L413.23 87.1829L413.206 87.207Z" fill="white"/>
<path d="M344.286 130.149H336.695V102.606C336.695 90.9663 344.912 82.7971 357.708 82.7971C370.504 82.7971 378.722 90.8699 378.722 102.316V130.149H371.083V103.714C371.083 95.0147 365.709 90.0024 357.708 90.0024C349.636 90.0024 344.286 95.0147 344.286 103.714V130.149Z" fill="white"/>
</svg>
