<?xml version="1.0" encoding="UTF-8" standalone="no"?>
<!DOCTYPE svg PUBLIC "-//W3C//DTD SVG 1.1//EN" "http://www.w3.org/Graphics/SVG/1.1/DTD/svg11.dtd">
<svg width="100%" height="100%" viewBox="0 0 231 80" version="1.1" xmlns="http://www.w3.org/2000/svg" xmlns:xlink="http://www.w3.org/1999/xlink" xml:space="preserve" xmlns:serif="http://www.serif.com/" style="fill-rule:evenodd;clip-rule:evenodd;stroke-linejoin:round;stroke-miterlimit:2;">
    <g transform="matrix(1,0,0,1,-2.121,0)">
        <g transform="matrix(1,0,0,1,-197,-52)">
            <path d="M320.791,104.22C320.26,96.364 314.838,90.798 306.067,90.798C297.295,90.798 291.03,96.364 290.307,104.22L320.791,104.22ZM325.658,127.137C320.284,130.246 314.501,131.643 308.308,131.643C292.837,131.643 282.138,121.86 282.138,107.69C282.138,93.521 292.018,83.737 305.802,83.737C321.369,83.737 330.189,96.34 327.707,110.485L290.09,110.485C291.391,119.546 299.054,124.534 307.97,124.534C313.344,124.534 318.14,123.619 324.309,120.269L325.658,127.161L325.658,127.137Z" style="fill:rgb(232,86,37);fill-rule:nonzero;"/>
        </g>
        <g transform="matrix(1,0,0,1,-197,-52)">
            <path d="M206.639,129.354L199.121,129.354L199.121,102.051C199.121,90.508 207.266,82.412 219.965,82.412C232.665,82.412 240.81,90.412 240.81,101.762L240.81,129.354L233.243,129.354L233.243,103.136C233.243,94.509 227.918,89.52 219.965,89.52C212.013,89.52 206.639,94.509 206.639,103.136L206.639,129.354Z" style="fill:rgb(232,86,37);fill-rule:nonzero;"/>
        </g>
        <g transform="matrix(1,0,0,1,-197,-52)">
            <path d="M240.786,129.354L233.267,129.354L233.267,102.051C233.267,90.508 241.412,82.412 254.112,82.412C266.812,82.412 274.957,90.412 274.957,101.762L274.957,129.354L267.39,129.354L267.39,103.136C267.39,94.509 262.064,89.52 254.112,89.52C246.16,89.52 240.786,94.509 240.786,103.136L240.786,129.354Z" style="fill:rgb(232,86,37);fill-rule:nonzero;"/>
        </g>
        <g transform="matrix(1,0,0,1,-197,-52)">
            <path d="M238.352,65.856L238.352,75.303L236.448,75.303L236.448,66.435C236.448,62.965 234.689,61.302 231.484,61.302C228.544,61.302 226.183,63.446 226.183,66.531L226.183,75.303L224.255,75.303L224.255,59.832L226.183,59.832L226.183,62.531C227.412,60.434 229.604,59.519 231.797,59.519C235.701,59.519 238.352,61.687 238.352,65.856Z" style="fill:rgb(232,86,37);fill-rule:nonzero;"/>
        </g>
        <g transform="matrix(1,0,0,1,-197,-52)">
            <path d="M250.979,73.857C254.57,73.857 257.269,71.11 257.269,67.567C257.269,64.025 254.57,61.278 250.979,61.278C247.389,61.278 244.69,64.025 244.69,67.567C244.69,71.11 247.389,73.857 250.979,73.857ZM250.979,59.519C255.678,59.519 259.197,63.037 259.197,67.567C259.197,72.098 255.678,75.616 250.979,75.616C246.28,75.616 242.762,72.098 242.762,67.567C242.762,63.037 246.28,59.519 250.979,59.519Z" style="fill:rgb(232,86,37);fill-rule:nonzero;"/>
        </g>
        <g transform="matrix(1,0,0,1,-197,-52)">
            <path d="M274.643,60.001L279.415,73.544L283.704,59.832L285.776,59.832L280.668,75.303L278.162,75.303L273.631,62.82L269.077,75.303L266.57,75.303L261.486,59.832L263.534,59.832L267.824,73.519L272.595,60.001L274.643,60.001Z" style="fill:rgb(232,86,37);fill-rule:nonzero;"/>
        </g>
        <g transform="matrix(1,0,0,1,-197,-52)">
            <path d="M322.887,65.784L322.887,75.303L320.959,75.303L320.959,66.362C320.959,63.23 319.152,61.302 316.044,61.302C313.272,61.302 311.055,63.422 311.055,66.459L311.055,75.303L309.127,75.303L309.127,66.362C309.127,63.23 307.344,61.302 304.428,61.302C301.513,61.302 299.296,63.422 299.296,66.459L299.296,75.303L297.368,75.303L297.368,59.832L299.296,59.832L299.296,62.483C300.476,60.41 302.621,59.494 304.742,59.494C307.585,59.494 309.658,60.844 310.549,63.109C311.682,60.579 313.971,59.494 316.333,59.494C320.237,59.494 322.839,61.928 322.839,65.76L322.887,65.784Z" style="fill:rgb(232,86,37);fill-rule:nonzero;"/>
        </g>
        <g transform="matrix(1,0,0,1,-197,-52)">
            <path d="M339.129,59.832L341.25,59.832L334.069,77.254C332.671,80.532 331.08,82.05 328.622,82.05C327.49,82.05 326.478,81.857 325.899,81.544L326.164,79.857C326.815,80.122 327.683,80.291 328.478,80.291C329.9,80.291 331.177,79.11 332.285,76.483L332.502,75.929L325.803,59.832L327.875,59.832L333.587,73.568L339.153,59.832L339.129,59.832Z" style="fill:rgb(232,86,37);fill-rule:nonzero;"/>
        </g>
        <g transform="matrix(1,0,0,1,-197,-52)">
            <path d="M208.495,74.845L208.495,52L210.664,52L210.664,66.748L217.363,59.422L220.014,59.422L213.049,66.989L220.761,74.845L217.989,74.845L210.664,67.206L210.664,74.845L208.495,74.845Z" style="fill:rgb(232,86,37);fill-rule:nonzero;"/>
        </g>
        <g transform="matrix(1,0,0,1,-197,-52)">
            <path d="M421.279,83.351L428.87,83.351L428.87,110.895C428.87,122.534 420.652,130.704 407.856,130.704C395.06,130.704 386.843,122.631 386.843,111.184L386.843,83.351L394.482,83.351L394.482,109.787C394.482,118.486 399.856,123.498 407.856,123.498C415.857,123.498 421.279,118.486 421.279,109.787L421.279,83.351Z" style="fill:rgb(232,86,37);fill-rule:nonzero;"/>
        </g>
        <g transform="matrix(1,0,0,1,-197,-52)">
            <path d="M413.206,87.207C413.327,86.436 413.929,84.99 414.266,84.147L414.989,82.219C416.989,76.7 418.821,67.567 421.158,63.109C422.436,60.675 424.195,56.82 427.544,58.314C430.243,59.519 429.617,62.049 428.966,64.362C428.388,66.338 427.52,68.314 426.556,70.146C424.701,73.688 422.05,77.52 420.05,81.086C419.351,82.315 418.604,83.52 418.026,84.797C417.664,85.593 416.363,87.785 416.266,88.46L414.748,91.882C414.242,92.388 413.447,94.388 413.543,95.449C413.929,99.111 416.05,99.593 414.411,103.714L412.363,107.835C411.591,109.16 411.037,110.606 410.266,111.931L409.447,113.498C409.109,114.052 408.893,114.582 408.579,115.136L407.76,116.703C407.374,117.498 406.676,119.233 405.615,119.763C405.519,119.016 405.953,118.39 406.194,117.835L409.037,110.847C409.519,109.449 411.085,106.606 410.362,105.377C409.591,105.811 408.676,107.714 408.218,108.582L405.591,113.642C405.398,114.004 405.398,114.173 405.181,114.534C404.965,114.895 404.94,114.92 404.748,115.305C404.531,115.787 404.169,116.438 403.856,116.944C403.543,117.474 403.374,118.149 402.748,118.51C402.675,117.281 404.724,112.678 405.326,111.401C406.025,109.907 407.977,105.618 407.543,104.172C406.555,104.654 404.724,108.22 404.434,109.088C404.193,109.811 404.001,110.172 403.711,110.799C403.278,111.811 400.988,117.064 400.265,117.426C400.097,116.124 402.868,109.835 403.302,108.365L403.928,106.606C404.097,106.1 404.266,105.473 404.459,104.823C404.603,104.365 404.892,103.521 404.748,102.967C403.374,103.208 402.193,106.509 401.567,107.714C400.603,109.57 398.651,115.136 397.47,116.197C397.036,114.847 399.133,108.847 399.832,107.184L401.157,103.81C402.073,101.545 403.23,99.352 404.242,97.135C404.507,96.533 405.037,96.22 405.736,95.858C409.254,94.075 410.387,94.509 411.712,90.557L413.23,87.183L413.206,87.207Z" style="fill:rgb(232,86,37);"/>
        </g>
        <g transform="matrix(1,0,0,1,-197,-52)">
            <path d="M344.286,130.149L336.695,130.149L336.695,102.606C336.695,90.966 344.912,82.797 357.708,82.797C370.504,82.797 378.722,90.87 378.722,102.316L378.722,130.149L371.083,130.149L371.083,103.714C371.083,95.015 365.709,90.002 357.708,90.002C349.636,90.002 344.286,95.015 344.286,103.714L344.286,130.149Z" style="fill:rgb(232,86,37);fill-rule:nonzero;"/>
        </g>
    </g>
</svg>
