<?xml version="1.0" encoding="UTF-8" standalone="no"?>
<!DOCTYPE svg PUBLIC "-//W3C//DTD SVG 1.1//EN" "http://www.w3.org/Graphics/SVG/1.1/DTD/svg11.dtd">
<svg width="100%" height="100%" viewBox="0 0 235 117" version="1.1" xmlns="http://www.w3.org/2000/svg" xmlns:xlink="http://www.w3.org/1999/xlink" xml:space="preserve" xmlns:serif="http://www.serif.com/" style="fill-rule:evenodd;clip-rule:evenodd;stroke-linejoin:round;stroke-miterlimit:2;">
    <g transform="matrix(1,0,0,1,-197,-52)">
        <path d="M201.338,168.754L197,168.754L197,145.765L201.338,145.765L201.338,147.09L198.349,147.09L198.349,167.405L201.338,167.405L201.338,168.754Z" style="fill:white;fill-rule:nonzero;"/>
        <path d="M211.242,156.464L211.242,164.055L209.82,164.055L209.82,148.078L220.712,148.078L220.712,149.355L211.217,149.355L211.217,155.211L218.929,155.211L218.929,156.464L211.217,156.464L211.242,156.464Z" style="fill:white;fill-rule:nonzero;"/>
        <path d="M227.508,152.512C230.954,152.512 233.508,155.09 233.508,158.392C233.508,161.693 230.954,164.272 227.508,164.272C224.062,164.272 221.508,161.693 221.508,158.392C221.508,155.09 224.062,152.512 227.508,152.512ZM227.508,162.995C230.135,162.995 232.087,160.994 232.087,158.416C232.087,155.837 230.111,153.837 227.508,153.837C224.905,153.837 222.929,155.837 222.929,158.416C222.929,160.994 224.905,162.995 227.508,162.995Z" style="fill:white;fill-rule:nonzero;"/>
        <path d="M238.304,154.536C238.93,153.163 240.111,152.512 241.461,152.512C242.184,152.512 242.69,152.608 243.123,152.801L242.979,154.127C242.473,153.934 242.111,153.813 241.388,153.813C239.629,153.813 238.328,155.139 238.328,157.645L238.328,164.031L236.906,164.031L236.906,152.729L238.328,152.729L238.328,154.536L238.304,154.536Z" style="fill:white;fill-rule:nonzero;"/>
        <path d="M252.232,152.753L252.232,154.898C253.1,153.548 254.787,152.512 256.907,152.512C260.16,152.512 262.618,155.066 262.618,158.392C262.618,161.717 260.16,164.296 256.907,164.296C254.762,164.296 253.076,163.236 252.232,161.886L252.232,168.778L250.81,168.778L250.81,152.777L252.232,152.777L252.232,152.753ZM252.16,158.392C252.16,160.994 254.16,162.995 256.811,162.995C259.462,162.995 261.245,160.994 261.245,158.392C261.245,155.789 259.341,153.813 256.811,153.813C254.16,153.813 252.16,155.813 252.16,158.392Z" style="fill:white;fill-rule:nonzero;"/>
        <path d="M275.728,163.163C274.402,163.958 272.981,164.272 271.535,164.272C267.727,164.272 265.101,161.862 265.101,158.392C265.101,154.922 267.51,152.512 270.908,152.512C274.884,152.512 276.86,155.621 276.306,158.898L266.619,158.898C266.836,161.5 269.173,162.922 271.366,162.922C272.667,162.922 273.896,162.826 275.414,161.886L275.728,163.139L275.728,163.163ZM274.981,157.717C274.884,155.5 273.39,153.813 270.956,153.813C268.522,153.813 266.812,155.476 266.643,157.717L274.981,157.717Z" style="fill:white;fill-rule:nonzero;"/>
        <path d="M284.837,152.512C288.283,152.512 290.837,155.09 290.837,158.392C290.837,161.693 288.283,164.272 284.837,164.272C281.391,164.272 278.836,161.693 278.836,158.392C278.836,155.09 281.391,152.512 284.837,152.512ZM284.837,162.995C287.463,162.995 289.415,160.994 289.415,158.416C289.415,155.837 287.439,153.837 284.837,153.837C282.234,153.837 280.258,155.837 280.258,158.416C280.258,160.994 282.234,162.995 284.837,162.995Z" style="fill:white;fill-rule:nonzero;"/>
        <path d="M295.632,152.753L295.632,154.898C296.5,153.548 298.187,152.512 300.307,152.512C303.561,152.512 306.019,155.066 306.019,158.392C306.019,161.717 303.561,164.296 300.307,164.296C298.163,164.296 296.476,163.236 295.632,161.886L295.632,168.778L294.211,168.778L294.211,152.777L295.632,152.777L295.632,152.753ZM295.56,158.392C295.56,160.994 297.56,162.995 300.211,162.995C302.862,162.995 304.645,160.994 304.645,158.392C304.645,155.789 302.741,153.813 300.211,153.813C297.56,153.813 295.56,155.813 295.56,158.392Z" style="fill:white;fill-rule:nonzero;"/>
        <rect x="309.465" y="147.476" width="1.421" height="16.579" style="fill:white;fill-rule:nonzero;"/>
        <path d="M324.911,163.163C323.586,163.958 322.164,164.272 320.718,164.272C316.911,164.272 314.284,161.862 314.284,158.392C314.284,154.922 316.694,152.512 320.092,152.512C324.068,152.512 326.044,155.621 325.49,158.898L315.802,158.898C316.019,161.5 318.357,162.922 320.55,162.922C321.851,162.922 323.08,162.826 324.598,161.886L324.911,163.139L324.911,163.163ZM324.164,157.717C324.068,155.5 322.574,153.813 320.14,153.813C317.706,153.813 315.995,155.476 315.827,157.717L324.164,157.717Z" style="fill:white;fill-rule:nonzero;"/>
        <path d="M342.744,152.874L346.238,162.778L349.371,152.753L350.865,152.753L347.154,164.055L345.322,164.055L341.997,154.946L338.671,164.055L336.84,164.055L333.129,152.753L334.623,152.753L337.756,162.754L341.25,152.874L342.744,152.874Z" style="fill:white;fill-rule:nonzero;"/>
        <path d="M363.974,157.115L363.974,164.031L362.576,164.031L362.576,157.549C362.576,155.018 361.299,153.813 358.962,153.813C356.817,153.813 355.082,155.38 355.082,157.621L355.082,164.031L353.66,164.031L353.66,147.452L355.082,147.452L355.082,154.681C355.974,153.163 357.588,152.488 359.179,152.488C362.022,152.488 363.974,154.054 363.974,157.115Z" style="fill:white;fill-rule:nonzero;"/>
        <path d="M373.203,152.512C376.649,152.512 379.204,155.09 379.204,158.392C379.204,161.693 376.649,164.272 373.203,164.272C369.757,164.272 367.203,161.693 367.203,158.392C367.203,155.09 369.757,152.512 373.203,152.512ZM373.203,162.995C375.83,162.995 377.782,160.994 377.782,158.416C377.782,155.837 375.806,153.837 373.203,153.837C370.601,153.837 368.625,155.837 368.625,158.416C368.625,160.994 370.601,162.995 373.203,162.995Z" style="fill:white;fill-rule:nonzero;"/>
        <path d="M397.952,163.163C396.626,163.958 395.205,164.272 393.759,164.272C389.951,164.272 387.325,161.862 387.325,158.392C387.325,154.922 389.734,152.512 393.132,152.512C397.108,152.512 399.084,155.621 398.53,158.898L388.843,158.898C389.06,161.5 391.397,162.922 393.59,162.922C394.891,162.922 396.12,162.826 397.639,161.886L397.952,163.139L397.952,163.163ZM397.229,157.717C397.133,155.5 395.638,153.813 393.205,153.813C390.771,153.813 389.06,155.476 388.891,157.717L397.229,157.717Z" style="fill:white;fill-rule:nonzero;"/>
        <path d="M409.278,164.031L409.278,162.007C408.362,163.452 406.723,164.272 404.964,164.272C402.675,164.272 401.108,163.043 401.108,161.018C401.108,158.826 403.109,157.548 406,157.548C407.398,157.548 408.579,157.813 409.278,158.054L409.278,157.042C409.278,155.042 408,153.837 405.591,153.837C404.434,153.837 402.94,154.199 402,154.705L401.855,153.404C402.892,152.873 404.434,152.488 405.663,152.488C408.916,152.488 410.675,154.199 410.675,157.018L410.675,164.007L409.278,164.007L409.278,164.031ZM409.278,159.91L409.278,159.139C408.506,158.922 407.518,158.657 405.928,158.657C403.904,158.657 402.506,159.452 402.506,160.946C402.506,162.296 403.518,163.115 405.012,163.115C407.157,163.115 408.94,161.597 409.278,159.91Z" style="fill:white;fill-rule:nonzero;"/>
        <path d="M416.748,153.982L416.748,160.537C416.748,162.296 417.64,162.995 418.797,162.995C419.471,162.995 420.291,162.874 420.821,162.633L421.014,163.838C420.604,164.031 419.664,164.248 418.724,164.248C416.724,164.248 415.327,163.163 415.327,160.85L415.327,153.958L413.182,153.958L413.182,152.705L415.327,152.705L415.327,149.09L416.772,149.09L416.772,152.705L420.628,152.705L420.628,153.958L416.772,153.958L416.748,153.982Z" style="fill:white;fill-rule:nonzero;"/>
        <path d="M430.292,167.453L430.292,147.114L427.303,147.114L427.303,145.789L431.641,145.789L431.641,168.778L427.303,168.778L427.303,167.453L430.292,167.453Z" style="fill:white;fill-rule:nonzero;"/>
        <path d="M320.791,104.22C320.26,96.364 314.838,90.798 306.067,90.798C297.295,90.798 291.03,96.364 290.307,104.22L320.791,104.22ZM325.658,127.137C320.284,130.246 314.501,131.643 308.308,131.643C292.837,131.643 282.138,121.86 282.138,107.69C282.138,93.521 292.018,83.737 305.802,83.737C321.369,83.737 330.189,96.34 327.707,110.485L290.09,110.485C291.391,119.546 299.054,124.534 307.97,124.534C313.344,124.534 318.14,123.619 324.309,120.269L325.658,127.161L325.658,127.137Z" style="fill:white;fill-rule:nonzero;"/>
        <path d="M206.639,129.354L199.121,129.354L199.121,102.051C199.121,90.508 207.266,82.412 219.965,82.412C232.665,82.412 240.81,90.412 240.81,101.762L240.81,129.354L233.243,129.354L233.243,103.136C233.243,94.509 227.918,89.52 219.965,89.52C212.013,89.52 206.639,94.509 206.639,103.136L206.639,129.354Z" style="fill:white;fill-rule:nonzero;"/>
        <path d="M240.786,129.354L233.267,129.354L233.267,102.051C233.267,90.508 241.412,82.412 254.112,82.412C266.812,82.412 274.957,90.412 274.957,101.762L274.957,129.354L267.39,129.354L267.39,103.136C267.39,94.509 262.064,89.52 254.112,89.52C246.16,89.52 240.786,94.509 240.786,103.136L240.786,129.354Z" style="fill:white;fill-rule:nonzero;"/>
        <path d="M238.352,65.856L238.352,75.303L236.448,75.303L236.448,66.435C236.448,62.965 234.689,61.302 231.484,61.302C228.544,61.302 226.183,63.446 226.183,66.531L226.183,75.303L224.255,75.303L224.255,59.832L226.183,59.832L226.183,62.531C227.412,60.434 229.604,59.519 231.797,59.519C235.701,59.519 238.352,61.687 238.352,65.856Z" style="fill:white;fill-rule:nonzero;"/>
        <path d="M250.979,73.857C254.57,73.857 257.269,71.11 257.269,67.567C257.269,64.025 254.57,61.278 250.979,61.278C247.389,61.278 244.69,64.025 244.69,67.567C244.69,71.11 247.389,73.857 250.979,73.857ZM250.979,59.519C255.678,59.519 259.197,63.037 259.197,67.567C259.197,72.098 255.678,75.616 250.979,75.616C246.28,75.616 242.762,72.098 242.762,67.567C242.762,63.037 246.28,59.519 250.979,59.519Z" style="fill:white;fill-rule:nonzero;"/>
        <path d="M274.643,60.001L279.415,73.544L283.704,59.832L285.776,59.832L280.668,75.303L278.162,75.303L273.631,62.82L269.077,75.303L266.57,75.303L261.486,59.832L263.534,59.832L267.824,73.519L272.595,60.001L274.643,60.001Z" style="fill:white;fill-rule:nonzero;"/>
        <path d="M322.887,65.784L322.887,75.303L320.959,75.303L320.959,66.362C320.959,63.23 319.152,61.302 316.044,61.302C313.272,61.302 311.055,63.422 311.055,66.459L311.055,75.303L309.127,75.303L309.127,66.362C309.127,63.23 307.344,61.302 304.428,61.302C301.513,61.302 299.296,63.422 299.296,66.459L299.296,75.303L297.368,75.303L297.368,59.832L299.296,59.832L299.296,62.483C300.476,60.41 302.621,59.494 304.742,59.494C307.585,59.494 309.658,60.844 310.549,63.109C311.682,60.579 313.971,59.494 316.333,59.494C320.237,59.494 322.839,61.928 322.839,65.76L322.887,65.784Z" style="fill:white;fill-rule:nonzero;"/>
        <path d="M339.129,59.832L341.25,59.832L334.069,77.254C332.671,80.532 331.08,82.05 328.622,82.05C327.49,82.05 326.478,81.857 325.899,81.544L326.164,79.857C326.815,80.122 327.683,80.291 328.478,80.291C329.9,80.291 331.177,79.11 332.285,76.483L332.502,75.929L325.803,59.832L327.875,59.832L333.587,73.568L339.153,59.832L339.129,59.832Z" style="fill:white;fill-rule:nonzero;"/>
        <path d="M208.495,74.845L208.495,52L210.664,52L210.664,66.748L217.363,59.422L220.014,59.422L213.049,66.989L220.761,74.845L217.989,74.845L210.664,67.206L210.664,74.845L208.495,74.845Z" style="fill:white;fill-rule:nonzero;"/>
        <path d="M421.279,83.351L428.87,83.351L428.87,110.895C428.87,122.534 420.652,130.704 407.856,130.704C395.06,130.704 386.843,122.631 386.843,111.184L386.843,83.351L394.482,83.351L394.482,109.787C394.482,118.486 399.856,123.498 407.856,123.498C415.857,123.498 421.279,118.486 421.279,109.787L421.279,83.351Z" style="fill:white;fill-rule:nonzero;"/>
        <path d="M413.206,87.207C413.327,86.436 413.929,84.99 414.266,84.147L414.989,82.219C416.989,76.7 418.821,67.567 421.158,63.109C422.436,60.675 424.195,56.82 427.544,58.314C430.243,59.519 429.617,62.049 428.966,64.362C428.388,66.338 427.52,68.314 426.556,70.146C424.701,73.688 422.05,77.52 420.05,81.086C419.351,82.315 418.604,83.52 418.026,84.797C417.664,85.593 416.363,87.785 416.266,88.46L414.748,91.882C414.242,92.388 413.447,94.388 413.543,95.449C413.929,99.111 416.05,99.593 414.411,103.714L412.363,107.835C411.591,109.16 411.037,110.606 410.266,111.931L409.447,113.498C409.109,114.052 408.893,114.582 408.579,115.136L407.76,116.703C407.374,117.498 406.676,119.233 405.615,119.763C405.519,119.016 405.953,118.39 406.194,117.835L409.037,110.847C409.519,109.449 411.085,106.606 410.362,105.377C409.591,105.811 408.676,107.714 408.218,108.582L405.591,113.642C405.398,114.004 405.398,114.173 405.181,114.534C404.965,114.895 404.94,114.92 404.748,115.305C404.531,115.787 404.169,116.438 403.856,116.944C403.543,117.474 403.374,118.149 402.748,118.51C402.675,117.281 404.724,112.678 405.326,111.401C406.025,109.907 407.977,105.618 407.543,104.172C406.555,104.654 404.724,108.22 404.434,109.088C404.193,109.811 404.001,110.172 403.711,110.799C403.278,111.811 400.988,117.064 400.265,117.426C400.097,116.124 402.868,109.835 403.302,108.365L403.928,106.606C404.097,106.1 404.266,105.473 404.459,104.823C404.603,104.365 404.892,103.521 404.748,102.967C403.374,103.208 402.193,106.509 401.567,107.714C400.603,109.57 398.651,115.136 397.47,116.197C397.036,114.847 399.133,108.847 399.832,107.184L401.157,103.81C402.073,101.545 403.23,99.352 404.242,97.135C404.507,96.533 405.037,96.22 405.736,95.858C409.254,94.075 410.387,94.509 411.712,90.557L413.23,87.183L413.206,87.207Z" style="fill:white;"/>
        <path d="M344.286,130.149L336.695,130.149L336.695,102.606C336.695,90.966 344.912,82.797 357.708,82.797C370.504,82.797 378.722,90.87 378.722,102.316L378.722,130.149L371.083,130.149L371.083,103.714C371.083,95.015 365.709,90.002 357.708,90.002C349.636,90.002 344.286,95.015 344.286,103.714L344.286,130.149Z" style="fill:white;fill-rule:nonzero;"/>
    </g>
</svg>
